# xmcd
#
# Track frame offsets:
# 182
# 18217
# 37905
# 51062
# 65282
# 74910
# 92470
# 102895
# 113815
# 124902
# 141635
# 166110
# 178497
# 189165
# 201292
#
# Disc length: 3015 seconds
#
#
# Revision: 0
# Processed by: cddbd v1.5.1PL0 Copyright (c) Steve Scherf et al.
# Submitted via: FreeRIP 2.70 
#
DISCID=d40bc50f
DTITLE=Ludwig Seuss and Friends - Marilyn Sessions
DYEAR=1900
DGENRE=Blues
TTITLE0=Night Train
TTITLE1=Sad Louis´ Blues
TTITLE2=I´m Ready
TTITLE3=Jim´s Gumbo
TTITLE4=T-Bone Steak
TTITLE5=Fonky Dee
TTITLE6=Down The Road
TTITLE7=Ful Moon Mood
TTITLE8=Pete´s Boogie
TTITLE9=Cool One
TTITLE10=Big Seven
TTITLE11=Cow-Cow Blues
TTITLE12=Spann´s Stomp
TTITLE13=I Feel so Good
TTITLE14=Blues for Stevie Ray
EXTD=
EXTT0=
EXTT1=
EXTT2=
EXTT3=
EXTT4=
EXTT5=
EXTT6=
EXTT7=
EXTT8=
EXTT9=
EXTT10=
EXTT11=
EXTT12=
EXTT13=
EXTT14=
PLAYORDER=
